<svg xmlns="http://www.w3.org/2000/svg" width="80.718" height="62.781" viewBox="0 0 80.718 62.781"><defs><style>.a{fill:#fff;}</style></defs><path class="a" d="M73.977,32H6.741A6.731,6.731,0,0,0,0,38.726V88.054a6.731,6.731,0,0,0,6.741,6.727H73.977a6.731,6.731,0,0,0,6.741-6.727V38.726A6.731,6.731,0,0,0,73.977,32Zm-66.4,6.726H73.137a.843.843,0,0,1,.841.841v5.886H6.741V39.567A.843.843,0,0,1,7.581,38.726ZM73.137,88.054H7.581a.843.843,0,0,1-.841-.841V63.39H73.977V87.213A.843.843,0,0,1,73.137,88.054ZM26.906,74.041v5.605a1.687,1.687,0,0,1-1.682,1.682H15.135a1.687,1.687,0,0,1-1.682-1.682V74.041a1.687,1.687,0,0,1,1.682-1.682h10.09A1.687,1.687,0,0,1,26.906,74.041Zm26.906,0v5.605a1.687,1.687,0,0,1-1.682,1.682H33.072a1.687,1.687,0,0,1-1.682-1.682V74.041a1.687,1.687,0,0,1,1.682-1.682H52.13A1.687,1.687,0,0,1,53.812,74.041Z" transform="translate(0 -32)"/></svg>