<svg xmlns="http://www.w3.org/2000/svg" width="75.652" height="58.83" viewBox="0 0 75.652 58.83"><defs><style>.a{fill:#fff;}</style></defs><path class="a" d="M36.808,47.312,12.594,67.255V88.778a2.1,2.1,0,0,0,2.1,2.1l14.717-.038a2.1,2.1,0,0,0,2.091-2.1V76.171a2.1,2.1,0,0,1,2.1-2.1H42.01a2.1,2.1,0,0,1,2.1,2.1v12.56a2.1,2.1,0,0,0,2.1,2.108l14.712.041a2.1,2.1,0,0,0,2.1-2.1V67.24L38.817,47.312a1.6,1.6,0,0,0-2.009,0ZM75.055,60.867l-10.979-9.05V33.626A1.576,1.576,0,0,0,62.5,32.05H55.146a1.576,1.576,0,0,0-1.576,1.576v9.536L41.812,33.488a6.3,6.3,0,0,0-8.011,0L.557,60.867a1.576,1.576,0,0,0-.21,2.219L3.7,67.157a1.576,1.576,0,0,0,2.221.214L36.808,41.927a1.6,1.6,0,0,1,2.009,0L69.71,67.371a1.576,1.576,0,0,0,2.219-.21l3.349-4.071a1.576,1.576,0,0,0-.223-2.223Z" transform="translate(0.015 -32.05)"/></svg>