<svg xmlns="http://www.w3.org/2000/svg" width="63.061" height="63.061" viewBox="0 0 63.061 63.061"><defs><style>.a{fill:#fff;}</style></defs><path class="a" d="M62.486,10.431,57.152,5.1a3.941,3.941,0,0,0-2.787-1.154H35.474V1.971A1.97,1.97,0,0,0,33.5,0H29.562a1.97,1.97,0,0,0-1.971,1.971V3.941H6.9A2.957,2.957,0,0,0,3.944,6.9v9.853A2.957,2.957,0,0,0,6.9,19.707H54.364a3.944,3.944,0,0,0,2.787-1.154l5.334-5.334a1.971,1.971,0,0,0,0-2.787ZM27.592,61.091a1.97,1.97,0,0,0,1.971,1.971H33.5a1.97,1.97,0,0,0,1.971-1.971V47.3H27.592Zm28.575-33.5H35.474V23.648H27.592v3.941H8.7a3.944,3.944,0,0,0-2.787,1.154L.58,34.079a1.971,1.971,0,0,0,0,2.787L5.914,42.2A3.941,3.941,0,0,0,8.7,43.355H56.166A2.957,2.957,0,0,0,59.122,40.4V30.545A2.957,2.957,0,0,0,56.166,27.589Z" transform="translate(-0.002)"/></svg>