<svg xmlns="http://www.w3.org/2000/svg" width="63.061" height="63.061" viewBox="0 0 63.061 63.061"><defs><style>.a{fill:#fff;}</style></defs><path class="a" d="M60.76,3.02,47.951.064a2.975,2.975,0,0,0-3.387,1.712L38.652,15.571a2.948,2.948,0,0,0,.85,3.449l7.464,6.109A45.646,45.646,0,0,1,25.141,46.953l-6.109-7.464a2.953,2.953,0,0,0-3.449-.85L1.789,44.551a2.991,2.991,0,0,0-1.724,3.4L3.021,60.76A2.955,2.955,0,0,0,5.9,63.05,57.142,57.142,0,0,0,63.051,5.9,2.952,2.952,0,0,0,60.76,3.02Z" transform="translate(0.01 0.011)"/></svg>