<svg xmlns="http://www.w3.org/2000/svg" width="51.237" height="63.061" viewBox="0 0 51.237 63.061"><defs><style>.a{fill:#fff;}</style></defs><path class="a" d="M25.606,1.871c.1.579,1.983,11.639,1.983,15.864,0,6.442-3.424,11.036-8.486,12.883l1.589,29.326a2.963,2.963,0,0,1-2.956,3.116H9.853A2.964,2.964,0,0,1,6.9,59.944L8.486,30.618C3.412,28.77,0,24.164,0,17.735,0,13.5,1.884,2.45,1.983,1.871c.394-2.5,5.579-2.537,5.9.135V19.4c.16.419,1.86.394,1.971,0,.172-3.116.973-17.145.985-17.465.406-2.562,5.506-2.562,5.9,0,.025.333.813,14.349.985,17.465.111.394,1.823.419,1.971,0V2.006c.32-2.66,5.518-2.636,5.912-.135ZM40.288,37.06l-1.847,22.8a2.955,2.955,0,0,0,2.944,3.2h6.9A2.949,2.949,0,0,0,51.237,60.1V2.955A2.957,2.957,0,0,0,48.281,0C38.12,0,21.012,21.984,40.288,37.06Z" transform="translate(0 0.001)"/></svg>