<svg xmlns="http://www.w3.org/2000/svg" width="38.12" height="38.12" viewBox="0 0 38.12 38.12"><defs><style>.a{fill:#fff;}</style></defs><path class="a" d="M27.06,8A19.06,19.06,0,1,1,8,27.06,19.056,19.056,0,0,1,27.06,8ZM24.839,19.036l5.8,5.564H16.608a1.84,1.84,0,0,0-1.844,1.844v1.23a1.84,1.84,0,0,0,1.844,1.844H30.641l-5.8,5.564a1.847,1.847,0,0,0-.031,2.636l.845.838a1.837,1.837,0,0,0,2.605,0l10.2-10.191a1.837,1.837,0,0,0,0-2.605l-10.2-10.206a1.837,1.837,0,0,0-2.605,0l-.845.838A1.856,1.856,0,0,0,24.839,19.036Z" transform="translate(-8 -8)"/></svg>